<svg
  width="16"
  height="16"
  viewBox="0 0 16 16"
  fill="none"
  xmlns="http://www.w3.org/2000/svg"
>
  <path
    d="M3.91809 1.98069H12.0818C12.2451 1.98069 12.3831 2.03708 12.4959 2.14986C12.6086 2.26264 12.665 2.40069 12.665 2.56403V13.729C12.665 13.8068 12.6358 13.8749 12.5775 13.9332C12.5192 13.9915 12.4511 14.0207 12.3734 14.0207C12.319 14.0207 12.2684 14.0051 12.2218 13.974L7.99996 11.3257L3.77814 13.974C3.71594 14.0207 3.64402 14.0343 3.56238 14.0149C3.48074 13.9954 3.42049 13.9507 3.38161 13.8807C3.35051 13.834 3.33496 13.7835 3.33496 13.729V2.56403C3.33496 2.40069 3.39133 2.26264 3.50407 2.14986C3.6168 2.03708 3.75481 1.98069 3.91809 1.98069ZM11.4987 3.14736H4.50121V12.154L7.99996 9.94903L11.4987 12.154V3.14736Z"
    fill="#854D0E"
  />
</svg>
